<?xml version="1.0" encoding="utf-8"?>
<!-- Generator: Adobe Illustrator 21.1.0, SVG Export Plug-In . SVG Version: 6.00 Build 0)  -->
<svg version="1.1" xmlns="http://www.w3.org/2000/svg" xmlns:xlink="http://www.w3.org/1999/xlink" x="0px" y="0px"
	 viewBox="0 0 150 150" style="enable-background:new 0 0 150 150;" xml:space="preserve">
<style type="text/css">
	.st0{display:none;}
	.st1{display:inline;fill:#FFFFFF;}
	.st2{fill:#FFFFFF;}
	.st3{display:inline;}
</style>
<g id="black_Circle" class="st0">
</g>
<g id="White_Circle_copy" class="st0">
</g>
<g id="black_circle" class="st0">
</g>
<g id="ns_black">
</g>
<g id="ns_white">
	<g>
		<g>
			<path class="st2" d="M37.4,64.8c2.8-3,5.2-5,9.2-5c4.2-0.2,4.6,0.4,2.2,3.2c-3.4,3.8-5.8,6.8-7.8,9.4c-3.2,4-7.2,9.4-9.4,12.6
				l0.2,0.2c4.8-4,11.4-9.8,18.4-15C57.2,65,66,59.4,72,59.4c4.2,0,6.6,2,6.2,5.4c-0.6,3.6-4.8,8.2-8,12.2c-3.2,3.8-5.6,7.2-6.6,8.8
				c-1.6,2.6-1.6,3.8-0.8,4.4c1,0.8,3.2,0,4.8-0.8c2.4-1.2,5.2-2.8,9.6-6.2c2-1.5,4.2-3.4,6.1-5.1c2-3.1,5.1-5.2,8.3-5.1
				c2.8,0.2,4.2,2.2,3.8,4.4c-0.4,2-1.8,3.6-4.4,5c-1.8,1-4.4,3.2-4.6,6c-0.2,3.2,2.2,5,5.8,5c4,0,9-3.2,13.4-10.8
				c3.6-5.8,7.2-17.8,9.4-20.4V62c-2,2-6.2,5.2-9.6,7.6c-2.8,2-6,4-7.6,4.8c-0.8,0.4-1.6,0.8-2,0.2c-0.2-0.6,0-1,1-1.6
				c2-1.2,5.2-3.2,8.4-5.6c3.6-2.6,7.2-5.6,11.8-9.6c0.4-0.8,1.8-2.4,3.2-3.4c1.5-1.1,2.9-1.7,4.2-2C116.6,34.5,98.8,22,78,22
				c-27.9,0-50.5,22.6-50.5,50.5c0,1.3,0.1,2.6,0.2,3.9C30.6,72.6,33.8,68.7,37.4,64.8z"/>
		</g>
		<g>
			<path class="st2" d="M125.7,55.9c-0.2,0.2-0.5,0.3-0.7,0.5c-1.8,1.2-3.8,2-4.8,3c-1.6,1.6-1.4,3.2-1.4,5.4
				c0.2,5.6,0.6,10.8-1.8,16.4c-1.2,2.8-3.4,5.6-6.4,8.2c-5.4,4.6-11.2,6-17.4,6c-10.4,0-12.6-6.4-11.8-12c0.1-0.5,0.2-1,0.3-1.4
				c-2,1.7-4.1,3.5-5.9,4.8c-4,3-11.8,8-18,8c-3.8,0-6.2-1.8-6-5.2c0.2-4.4,4.6-9.4,8.4-14c3-3.6,6-7,8.4-9.8c0.8-1,1.2-2.2,0.2-2.8
				s-3.2,0.2-5.2,1.2C60,66,54.4,69.4,48,74.4c-7.1,5.5-11.6,9.6-17.7,14.5C37.1,108.7,55.9,123,78,123c27.9,0,50.5-22.6,50.5-50.5
				C128.5,66.7,127.5,61.1,125.7,55.9z"/>
		</g>
	</g>
</g>
<g id="ns_black_copy" class="st0">
</g>
</svg>
